<svg width="32" height="32" viewBox="0 0 32 32" fill="none" xmlns="http://www.w3.org/2000/svg">
<path d="M0 5C0 2.23858 2.23858 0 5 0H27C29.7614 0 32 2.23858 32 5V27C32 29.7614 29.7614 32 27 32H5C2.23858 32 0 29.7614 0 27V5Z" fill="#1157FF"/>
<path d="M12.6537 11C13.1155 11 13.5418 11.0355 13.9326 11.1421C14.3234 11.2131 14.6431 11.3552 14.9273 11.5329C15.2115 11.7105 15.4246 11.9592 15.5667 12.2789C15.7088 12.5986 15.7799 12.9894 15.7799 13.4157C15.7799 13.913 15.6733 14.3393 15.4246 14.659C15.2115 14.9788 14.8562 15.263 14.43 15.4761C15.0339 15.6537 15.4957 15.9734 15.7799 16.3997C16.0641 16.826 16.2417 17.3589 16.2417 17.9628C16.2417 18.4602 16.1351 18.8865 15.9575 19.2417C15.7799 19.5969 15.4957 19.9167 15.176 20.1298C14.8562 20.343 14.4655 20.5206 14.0392 20.6272C13.6129 20.7337 13.1866 20.8048 12.7603 20.8048H8V11H12.6537ZM12.3695 14.9788C12.7603 14.9788 13.08 14.8722 13.3287 14.6946C13.5774 14.5169 13.6839 14.1972 13.6839 13.8064C13.6839 13.5933 13.6484 13.3801 13.5774 13.238C13.5063 13.096 13.3997 12.9894 13.2576 12.8828C13.1155 12.8118 12.9734 12.7407 12.7958 12.7052C12.6182 12.6697 12.4406 12.6697 12.2274 12.6697H10.167V14.9788H12.3695ZM12.4761 19.1707C12.6892 19.1707 12.9024 19.1351 13.08 19.0996C13.2576 19.0641 13.4353 18.993 13.5774 18.8865C13.7195 18.7799 13.826 18.6733 13.9326 18.4957C14.0037 18.3181 14.0747 18.1049 14.0747 17.8562C14.0747 17.3589 13.9326 17.0037 13.6484 16.755C13.3642 16.5418 12.9734 16.4353 12.5116 16.4353H10.167V19.1707H12.4761ZM19.3323 19.1351C19.6165 19.4193 20.0428 19.5614 20.6112 19.5614C21.002 19.5614 21.3572 19.4549 21.6414 19.2772C21.9256 19.0641 22.1033 18.8509 22.1743 18.6378H23.915C23.6308 19.4904 23.2045 20.0943 22.6361 20.4851C22.0677 20.8403 21.3928 21.0535 20.5757 21.0535C20.0073 21.0535 19.51 20.9469 19.0481 20.7693C18.5863 20.5916 18.2311 20.343 17.9114 19.9877C17.5916 19.668 17.343 19.2772 17.2009 18.8154C17.0232 18.3536 16.9522 17.8562 16.9522 17.2879C16.9522 16.755 17.0232 16.2576 17.2009 15.7958C17.3785 15.334 17.6272 14.9432 17.9469 14.588C18.2666 14.2683 18.6574 13.9841 19.0837 13.8064C19.5455 13.6288 20.0073 13.5222 20.5757 13.5222C21.1796 13.5222 21.7125 13.6288 22.1743 13.8775C22.6361 14.1262 22.9914 14.4104 23.2756 14.8367C23.5598 15.2274 23.7729 15.6892 23.915 16.1866C23.9861 16.6839 24.0216 17.1813 23.9861 17.7497H18.835C18.835 18.3181 19.0481 18.8509 19.3323 19.1351ZM21.5704 15.405C21.3217 15.1564 20.9309 15.0143 20.4691 15.0143C20.1494 15.0143 19.9007 15.0853 19.6876 15.1919C19.4744 15.2985 19.3323 15.4406 19.1902 15.5827C19.0481 15.7248 18.9771 15.9024 18.9416 16.08C18.906 16.2576 18.8705 16.3997 18.8705 16.5418H22.0677C21.9967 16.009 21.8191 15.6537 21.5704 15.405ZM18.4442 11.675H22.423V12.6341H18.4442V11.675Z" fill="white"/>
</svg>
