<svg width="128" height="128" viewBox="0 0 128 128" fill="none" xmlns="http://www.w3.org/2000/svg">
<path d="M111.25 2.16016H16.7502C8.69232 2.16016 2.16016 8.69232 2.16016 16.7502V111.24C2.16016 119.298 8.69232 125.83 16.7502 125.83H111.25C119.308 125.83 125.84 119.298 125.84 111.24V16.7502C125.84 8.69232 119.308 2.16016 111.25 2.16016Z" fill="url(#paint0_linear_3_7499)"/>
<path d="M52.6299 60.2801C52.6299 60.2801 63.1299 59.5001 63.1299 47.1901C63.1299 34.8801 54.5399 28.8701 43.6599 28.8701H7.85986V97.6701H43.6599C43.6599 97.6701 65.5099 98.3601 65.5099 77.3601C65.5099 77.3601 66.4699 60.2801 52.6299 60.2801ZM23.6299 41.1001H43.6299C43.6299 41.1001 48.4999 41.1001 48.4999 48.2601C48.4999 55.4201 45.6399 56.4601 42.3899 56.4601H23.6399L23.6299 41.1001ZM42.7299 85.4401H23.6399V67.0601H43.6399C43.6399 67.0601 50.8899 66.9601 50.8899 76.5101C50.9099 84.4601 45.6099 85.3601 42.7399 85.4401H42.7299ZM94.6599 46.3801C68.1999 46.3801 68.2299 72.8101 68.2299 72.8101C68.2299 72.8101 66.4099 99.1101 94.6599 99.1101C94.6599 99.1101 118.2 100.45 118.2 80.8201H106.1C106.1 80.8201 106.5 88.2201 95.0999 88.2201C95.0999 88.2201 82.9899 89.0301 82.9899 76.2201H118.64C118.64 76.2201 122.51 46.3801 94.6599 46.3801ZM105.42 67.0601H82.8199C82.8199 67.0601 84.2999 56.4601 94.9299 56.4601C105.56 56.4601 105.42 67.0601 105.42 67.0601ZM79.8599 32.9301H108.24V41.4001H79.8599V32.9301Z" fill="white"/>
<defs>
<linearGradient id="paint0_linear_3_7499" x1="64.0002" y1="2.16016" x2="64.0002" y2="125.84" gradientUnits="userSpaceOnUse">
<stop stop-color="#005CFF"/>
<stop offset="1" stop-color="#0047AD"/>
</linearGradient>
</defs>
</svg>
