<svg width="128" height="128" viewBox="0 0 128 128" fill="none" xmlns="http://www.w3.org/2000/svg">
<path d="M27.2349 13.8848C20.0579 13.8848 14.7489 20.1688 14.9859 26.9838C15.2139 33.5298 14.9179 42.0098 12.7829 48.9238C10.6429 55.8598 7.02286 60.2428 1.10986 60.8068V67.1938C7.02286 67.7568 10.6429 72.1408 12.7829 79.0768C14.9179 85.9908 15.2129 94.4708 14.9859 101.017C14.7479 107.832 20.0579 114.115 27.2349 114.115H100.775C107.952 114.115 113.261 107.831 113.024 101.017C112.796 94.4708 113.092 85.9908 115.226 79.0768C117.366 72.1418 120.977 67.7578 126.89 67.1938V60.8068C120.977 60.2438 117.367 55.8598 115.226 48.9238C113.092 42.0098 112.796 33.5298 113.024 26.9838C113.261 20.1688 107.952 13.8848 100.774 13.8848H27.2349ZM85.3489 75.5708C85.3489 84.9548 78.3469 90.6438 66.7279 90.6438H45.3059C45.1756 90.6438 45.0508 90.592 44.9587 90.5C44.8666 90.4079 44.8149 90.283 44.8149 90.1528V37.8268C44.8147 37.7622 44.8273 37.6982 44.852 37.6386C44.8766 37.5789 44.9127 37.5246 44.9583 37.4789C45.0039 37.4332 45.0581 37.397 45.1177 37.3722C45.1774 37.3475 45.2413 37.3348 45.3059 37.3348H66.6149C76.3039 37.3348 82.6619 42.5808 82.6619 50.6348C82.6619 56.2878 78.3849 61.3478 72.9349 62.2348V62.5308C80.3529 63.3438 85.3489 68.4788 85.3489 75.5708ZM64.5709 44.0958H53.2929V60.0178H62.7929C70.1349 60.0178 74.1839 57.0628 74.1839 51.7798C74.1839 46.8298 70.7029 44.0958 64.5709 44.0958ZM53.2929 66.3358V83.8838H64.9879C72.6329 83.8838 76.6829 80.8178 76.6829 75.0538C76.6829 69.2908 72.5199 66.3358 64.4959 66.3358H53.2929Z" fill="#7952B3"/>
</svg>
