<svg width="128" height="128" viewBox="0 0 128 128" fill="none" xmlns="http://www.w3.org/2000/svg">
<path d="M18.39 96.8521L13.79 94.1951L65.04 5.43408L69.637 8.09008L18.39 96.8521Z" fill="#E434AA"/>
<path d="M12.7339 87.1055H115.23V92.4155H12.7339V87.1055Z" fill="#E434AA"/>
<path d="M66.0306 119.688L14.7656 90.0902L17.4216 85.4882L68.6876 115.09L66.0306 119.688ZM110.566 42.5432L59.3006 12.9412L61.9566 8.34424L113.223 37.9412L110.566 42.5432Z" fill="#E434AA"/>
<path d="M17.4339 42.5232L14.7769 37.9222L66.0469 8.32422L68.7029 12.9222L17.4339 42.5232Z" fill="#E434AA"/>
<path d="M109.621 96.8521L58.3748 8.09008L62.9728 5.43408L114.223 94.1951L109.621 96.8521ZM16.7998 34.3981H22.1128V93.6021H16.8008L16.7998 34.3981Z" fill="#E434AA"/>
<path d="M105.887 34.3984H111.199V93.6024H105.887V34.3984Z" fill="#E434AA"/>
<path d="M65.1291 117.441L62.8091 113.421L107.395 87.6763L109.715 91.6963L65.1291 117.441Z" fill="#E434AA"/>
<path d="M118.238 95.3282C115.168 100.672 108.32 102.496 102.977 99.4262C97.6329 96.3522 95.8089 89.5042 98.8789 84.1602C101.953 78.8162 108.801 76.9922 114.145 80.0632C119.52 83.1683 121.344 89.9842 118.238 95.3282ZM29.0899 43.8402C26.0159 49.1842 19.1679 51.0082 13.8239 47.9372C8.47985 44.8632 6.65585 38.0162 9.72685 32.6722C12.8009 27.3282 19.6479 25.5042 24.9919 28.5742C30.3359 31.6802 32.1599 38.4962 29.0899 43.8402ZM9.76185 95.3282C6.68685 89.9842 8.51185 83.1682 13.8549 80.0622C19.1989 76.9922 26.0149 78.8162 29.1209 84.1602C32.1909 89.5042 30.3669 96.3202 25.0229 99.4262C19.6479 102.496 12.8319 100.672 9.76185 95.3282ZM98.9099 43.8402C95.8399 38.4962 97.6639 31.6802 103.008 28.5742C108.352 25.5042 115.168 27.3282 118.273 32.6722C121.343 38.0162 119.52 44.8322 114.176 47.9382C108.832 51.0082 101.984 49.1842 98.9099 43.8402ZM63.9999 126.656C62.5329 126.658 61.08 126.37 59.7245 125.809C58.3689 125.248 57.1373 124.425 56.0999 123.388C55.0626 122.351 54.2401 121.119 53.6793 119.764C53.1185 118.408 52.8305 116.955 52.8319 115.488C52.8305 114.021 53.1185 112.568 53.6793 111.213C54.2401 109.857 55.0626 108.626 56.0999 107.588C57.1373 106.551 58.3689 105.728 59.7245 105.168C61.08 104.607 62.5329 104.319 63.9999 104.32C65.4668 104.319 66.9197 104.607 68.2752 105.168C69.6308 105.728 70.8624 106.551 71.8998 107.588C72.9371 108.626 73.7596 109.857 74.3204 111.213C74.8812 112.568 75.1692 114.021 75.1679 115.488C75.1679 121.633 70.1758 126.656 63.9999 126.656ZM63.9999 23.6802C62.5329 23.6816 61.08 23.3936 59.7245 22.8328C58.3689 22.272 57.1373 21.4494 56.0999 20.4121C55.0626 19.3748 54.2401 18.1432 53.6793 16.7876C53.1185 15.4321 52.8305 13.9792 52.8319 12.5122C52.8305 11.0453 53.1185 9.59244 53.6793 8.23688C54.2401 6.88132 55.0626 5.64965 56.0999 4.61234C57.1373 3.57503 58.3689 2.75246 59.7245 2.19168C61.08 1.6309 62.5329 1.34293 63.9999 1.34424C65.4668 1.34293 66.9197 1.6309 68.2752 2.19168C69.6308 2.75246 70.8624 3.57503 71.8998 4.61234C72.9371 5.64965 73.7596 6.88132 74.3204 8.23688C74.8812 9.59244 75.1692 11.0453 75.1679 12.5122C75.1692 13.9792 74.8812 15.4321 74.3204 16.7876C73.7596 18.1432 72.9371 19.3748 71.8998 20.4121C70.8624 21.4494 69.6308 22.272 68.2752 22.8328C66.9197 23.3936 65.4668 23.6816 63.9999 23.6802Z" fill="#E434AA"/>
</svg>
