<svg width="128" height="128" viewBox="0 0 128 128" fill="none" xmlns="http://www.w3.org/2000/svg">
<path d="M88.6902 88.11C79.6902 106.51 63.9302 118.89 43.0802 122.96C39.8833 123.743 36.6015 124.126 33.3102 124.1C21.3102 124.1 10.3102 119.1 4.97018 110.91C-2.19982 100 -4.63982 76.87 19.0002 59.76C19.4802 62.37 20.4602 65.95 21.1102 68.07C16.4695 71.5177 12.6709 75.9727 10.0002 81.1C5.60018 89.74 6.09018 98.37 11.3002 106.35C14.9002 111.73 20.6002 115 27.9302 116C37.0855 117.159 46.3735 115.41 54.4802 111C67.1902 104.32 75.6602 96.34 81.2002 85.43C79.6337 83.8111 78.7065 81.6797 78.5902 79.43C78.5064 77.0159 79.3839 74.6671 81.03 72.8992C82.676 71.1313 84.9562 70.0886 87.3702 70H87.7102C90.0581 69.9882 92.3208 70.8795 94.0299 72.4895C95.739 74.0994 96.7639 76.3048 96.8923 78.6493C97.0208 80.9937 96.2431 83.2979 94.7201 85.0849C93.1971 86.872 91.0454 88.0051 88.7102 88.25L88.6902 88.11ZM117.36 67.91C129.57 81.75 129.9 98.04 125.18 107.49C120.78 116.12 109.18 124.76 93.5802 124.76C86.2978 124.611 79.1339 122.889 72.5802 119.71C74.8702 118.08 78.1202 115.47 79.9102 113.84C84.9641 116.029 90.4029 117.192 95.9102 117.26C106.01 117.26 113.66 112.54 118.22 103.91C121.15 98.21 121.32 91.53 118.55 84.69C115.151 76.0838 109.103 68.7818 101.28 63.84C91.0169 56.9214 78.9177 53.2332 66.5402 53.25H63.6102C62.9269 54.8283 61.8155 56.1837 60.4016 57.1628C58.9877 58.1419 57.3279 58.7056 55.6102 58.79H55.3002C52.9243 58.7608 50.6535 57.8065 48.9699 56.1299C47.2863 54.4533 46.3227 52.1864 46.2836 49.8107C46.2446 47.435 47.1332 45.1377 48.7608 43.4067C50.3883 41.6756 52.6266 40.6473 55.0002 40.54H55.3302C56.9842 40.5412 58.606 40.9983 60.0173 41.8609C61.4286 42.7236 62.5748 43.9585 63.3302 45.43H65.9402C86.7402 45.43 105 53.41 117.36 67.91ZM34.6102 90.91C34.4389 89.2494 34.8412 87.5802 35.7502 86.18C26.6302 70.38 21.7502 50.35 29.2402 29.5C34.6102 13.83 48.1302 3.23999 62.7902 3.23999C78.4302 3.23999 94.7202 16.93 96.6702 43.31C94.2302 42.5 90.6702 41.31 88.5302 40.87C88.0002 32.24 80.7102 10.74 63.4402 11.06C57.2502 11.23 48.1302 14.16 43.4402 20.18C37.6388 27.3662 34.2639 36.206 33.8002 45.43C32.7009 58.0777 35.6683 70.7461 42.2702 81.59C42.6346 81.4568 43.0231 81.4023 43.4102 81.43H43.7302C46.149 81.3862 48.486 82.3051 50.2273 83.9845C51.9686 85.6639 52.9714 87.9662 53.0152 90.385C53.0589 92.8038 52.1401 95.1409 50.4607 96.8821C48.7813 98.6234 46.479 99.6262 44.0602 99.67H43.7302C41.3705 99.6616 39.105 98.7429 37.406 97.1054C35.707 95.4678 34.7055 93.2378 34.6102 90.88V90.91Z" fill="#764ABC"/>
</svg>
