<svg width="128" height="128" viewBox="0 0 128 128" fill="none" xmlns="http://www.w3.org/2000/svg">
<path fill-rule="evenodd" clip-rule="evenodd" d="M1.21924 56.156C1.21924 56.859 1.42624 57.323 1.54224 57.774C2.29824 60.707 3.92324 63.224 5.85124 65.52C8.59724 68.792 11.9602 71.426 15.4052 73.903C18.3932 76.051 21.4422 78.151 24.4422 80.283C24.9572 80.649 25.4442 81.07 26.0032 81.519C25.5222 81.779 25.1222 82.008 24.7062 82.219C20.7472 84.227 16.9382 86.478 13.4272 89.205C11.3112 90.849 9.26524 92.596 7.82024 94.879C5.49524 98.551 4.67224 102.463 6.40524 106.64C6.91124 107.86 7.68324 108.914 8.77224 109.693C9.12524 109.945 9.52124 110.195 9.93424 110.293C10.9922 110.542 12.0702 110.705 13.1412 110.902L16.1742 110.9C19.5282 110.601 22.5812 109.452 25.3402 107.548C29.6522 104.572 32.5572 100.582 33.8062 95.461C34.7142 91.739 34.7512 88.013 33.6812 84.308C33.5788 83.9648 33.4607 83.6264 33.3272 83.294C33.1972 82.961 33.0442 82.637 32.8642 82.222L39.7402 78.268L39.8432 78.356C39.7182 78.765 39.5852 79.173 39.4722 79.586C38.6552 82.57 38.1122 85.606 38.3072 88.703C38.5152 92.003 39.4362 95.092 41.3682 97.849C42.9302 100.079 46.6522 100.162 48.3122 97.924C48.9012 97.129 49.4722 96.298 49.9012 95.411C51.0222 93.096 52.0602 90.74 53.1312 88.4L53.3182 87.972C53.2412 89.08 53.1512 90.053 53.1102 91.027C53.0462 92.548 53.1352 94.06 53.6552 95.507C54.1002 96.745 54.8572 97.67 56.2752 97.833C57.2452 97.944 58.0182 97.5 58.7312 96.937C59.8358 96.0641 60.7514 94.9757 61.4222 93.738C63.3232 90.247 65.2752 86.777 66.9982 83.198C68.8622 79.327 70.4922 75.343 72.2232 71.406L72.5092 70.708C72.9182 72.315 73.2032 73.889 73.7282 75.379C74.3382 77.108 75.0932 78.796 75.9152 80.437C76.3042 81.212 76.2592 81.715 75.7202 82.365C73.4642 85.085 71.2472 87.838 69.0282 90.588C68.5372 91.195 68.0482 91.813 67.6392 92.476C67.3911 92.8947 67.228 93.3582 67.1592 93.84C67.0904 94.2836 67.196 94.7366 67.4538 95.104C67.7116 95.4715 68.1017 95.7248 68.5422 95.811C69.4313 96.0025 70.343 96.0675 71.2502 96.004C74.3472 95.776 77.1592 94.689 79.6452 92.847C82.8662 90.461 83.9002 87.205 83.1202 83.346C82.9092 82.299 82.5362 81.281 82.1732 80.272C82.0102 79.817 81.9992 79.498 82.2962 79.074C84.8712 75.397 87.0712 71.496 89.1172 67.505C89.1982 67.348 89.2812 67.191 89.4232 67.023C90.0862 70.473 91.0842 73.798 92.8722 76.815C91.9602 77.694 91.0572 78.491 90.2402 79.369C88.4412 81.303 86.8812 83.403 86.0672 85.964C85.7172 87.068 85.4482 88.19 85.6042 89.369C85.8462 91.2 87.3462 92.39 89.1472 91.973C93.0012 91.081 96.3282 89.265 98.7592 86.048C100.395 83.882 100.544 81.466 99.8592 78.935C99.6712 78.247 99.4482 77.57 99.2082 76.781C100.159 76.486 101.086 76.132 102.045 75.913C107.024 74.777 111.949 74.975 116.747 76.773C119.548 77.823 121.811 79.58 123.153 82.344C124.792 85.723 123.886 88.929 120.701 91.065C120.404 91.264 120.064 91.421 119.818 91.67C119.739 91.7613 119.681 91.8681 119.645 91.9834C119.61 92.0988 119.599 92.2202 119.613 92.34C119.634 92.463 119.959 92.617 120.146 92.615C121.193 92.607 122.042 92.058 122.857 91.494C124.899 90.081 126.389 88.18 126.71 85.677L126.773 85.489L126.696 83.859C126.665 83.765 126.719 83.672 126.712 83.601C126.278 79.956 124.331 77.129 121.499 74.913C118.219 72.348 114.346 71.292 110.25 71.125C106.928 70.982 103.61 71.4927 100.485 72.628C99.5882 72.953 98.6992 73.338 97.7972 73.701C97.6762 73.482 97.5462 73.272 97.4392 73.055C96.5132 71.159 95.3912 69.347 95.1432 67.173C94.9672 65.629 94.7512 64.087 95.1182 62.56C95.4712 61.091 95.9312 59.647 96.3642 58.198C96.5872 57.452 96.4302 57.034 95.7182 56.698C95.4702 56.5743 95.2054 56.4874 94.9322 56.44C93.1822 56.186 91.4562 56.331 89.7612 56.824C89.1612 56.999 88.7252 57.335 88.5922 57.999C88.5162 58.38 88.3612 58.745 88.2532 59.121C87.8102 60.684 87.4962 62.277 86.7802 63.766C84.9862 67.501 82.9382 71.095 80.8422 74.663C80.6152 75.048 80.3762 75.426 80.0902 75.893C79.3542 74.353 78.5692 72.971 78.3312 71.351C78.0622 69.519 77.8502 67.69 78.3062 65.872C78.6452 64.516 79.0882 63.185 79.4962 61.847C79.6892 61.211 79.6002 60.877 79.0242 60.542C78.7332 60.373 78.4042 60.223 78.0762 60.174C76.2818 59.9007 74.4484 60.0507 72.7222 60.612C72.1792 60.788 71.8942 61.139 71.7282 61.699C71.2402 63.351 70.8242 65.043 70.1392 66.614C67.3652 72.974 64.5112 79.301 61.6602 85.627C61.0652 86.948 60.3682 88.223 59.6972 89.509C59.5272 89.835 59.2792 90.122 59.0672 90.428C58.8972 90.227 58.8312 90.089 58.8322 89.951C58.8372 89.138 58.7402 88.301 58.8952 87.515C59.3712 85.1378 59.8973 82.771 60.4732 80.416C60.9432 78.47 61.4902 76.542 62.0112 74.609C62.1862 73.962 62.1892 73.357 61.7242 72.813C60.9432 71.902 59.3112 71.702 58.3432 72.404L57.9152 72.646L57.9982 71.956C58.2022 70.477 58.2432 69.003 57.8372 67.546C57.3312 65.73 56.0352 64.685 54.1512 64.743C53.2732 64.77 52.3512 64.92 51.5382 65.24C48.1192 66.58 45.4902 68.953 43.2522 71.808C43.0448 72.0731 42.7876 72.2952 42.4952 72.462C39.6022 74.066 36.7002 75.65 33.7992 77.24L30.5702 79.009C29.7042 78.183 28.9172 77.326 28.0242 76.599C25.2972 74.375 22.5262 72.206 19.7802 70.007C17.3462 68.058 14.9882 66.028 13.1842 63.447C11.8422 61.527 10.9772 59.426 10.8942 57.052C10.7892 54.027 11.6472 51.263 13.1872 48.69C15.1572 45.398 17.8442 42.756 20.7982 40.363C23.9232 37.833 27.3032 35.685 30.8062 33.724C35.7072 30.981 40.7482 28.553 46.1532 26.95C51.6952 25.306 57.3182 24.365 63.1182 25.021C65.3982 25.279 67.6122 25.801 69.6452 26.916C71.2022 27.769 72.4792 28.886 73.0732 30.632C73.6592 32.35 73.6412 34.091 73.2352 35.836C72.4102 39.37 70.4752 42.283 68.0402 44.886C64.0462 49.153 59.1742 52.058 53.6892 53.977C50.5355 55.0818 47.2543 55.7817 43.9242 56.06C41.1952 56.289 38.5232 56.047 35.9392 55.098C34.2282 54.469 32.7382 53.507 31.5402 52.111C31.3262 51.861 31.0522 51.59 30.6532 51.824C30.2622 52.054 30.1932 52.426 30.3242 52.803C30.5432 53.429 30.7452 54.081 31.0862 54.641C31.9432 56.046 33.1932 57.065 34.5692 57.939C37.2122 59.62 40.1662 60.185 43.2292 60.316C47.8772 60.517 52.4122 59.823 56.8832 58.576C63.2662 56.796 68.8162 53.652 73.2672 48.692C76.9732 44.562 79.6202 39.901 80.1872 34.273C80.4642 31.526 80.1692 28.835 78.8832 26.329C77.4882 23.614 75.2702 21.595 72.6182 20.204C68.7562 18.179 64.5882 17 60.2862 17H55.9762C50.7662 17 45.7292 18.493 40.8332 20.274C37.1272 21.623 33.4932 23.215 29.9652 24.977C22.2822 28.816 15.1272 33.445 9.25024 39.81C6.32224 42.981 3.84324 46.48 2.41724 50.6C1.98684 51.8301 1.61608 53.0802 1.30624 54.346M29.1452 90.359C28.8122 94.818 26.7912 98.433 23.4882 101.361C21.6302 103.007 19.4992 104.179 17.0172 104.591C16.1172 104.74 15.1962 104.776 14.3232 104.403C13.0782 103.871 12.7992 102.766 12.7752 101.589C12.7382 99.713 13.3952 98.017 14.2962 96.403C15.4722 94.299 17.1962 92.695 19.0372 91.197C21.9372 88.836 25.0832 86.838 28.3052 84.952L28.5482 84.852C29.0462 86.692 29.2832 88.509 29.1452 90.359ZM54.3032 70.98C54.0682 72.404 53.7742 73.829 53.3582 75.209C51.9202 79.986 50.0732 84.615 48.0762 89.182C47.7072 90.027 47.1702 90.798 46.7032 91.599C46.6238 91.7221 46.5287 91.8344 46.4202 91.933C45.8422 92.504 45.2942 92.474 45.0022 91.727C44.6622 90.859 44.4532 89.93 44.2732 89.011C44.1522 88.394 44.1812 87.746 44.1432 87.114C44.1822 82.62 45.5532 78.536 47.8792 74.734C48.8382 73.166 49.8822 71.672 51.4772 70.68C51.9734 70.3715 52.5103 70.1339 53.0722 69.974C53.9222 69.735 54.4442 70.128 54.3032 70.98ZM71.4672 92.848L77.6362 85.645C77.8932 88.32 73.3462 93.66 71.4672 92.848ZM91.1702 88.001C90.7342 88.251 90.2592 88.431 89.8122 88.662C89.4032 88.874 89.2682 88.66 89.2562 88.308C89.2502 88.0643 89.2816 87.8212 89.3492 87.587C90.1822 84.649 91.7152 82.141 93.9962 80.101L94.1562 80.019C95.2412 83.054 93.9872 86.387 91.1702 88.001Z" fill="#CB6699"/>
</svg>
