<svg width="261" height="261" viewBox="0 0 261 261" fill="none" xmlns="http://www.w3.org/2000/svg">
<g filter="url(#filter0_d_22_655)">
<rect x="40.724" y="36.5939" width="180" height="180" rx="32" fill="white"/>
<rect x="41.224" y="37.0939" width="179" height="179" rx="31.5" stroke="white"/>
</g>
<path d="M80.8284 163.294C80.8284 170.416 86.6014 176.188 93.7225 176.188H167.934C175.056 176.188 180.828 170.415 180.828 163.294V89.0826C180.828 81.9604 175.055 76.1881 167.934 76.1881H93.7229C86.6006 76.1881 80.8284 81.9612 80.8284 89.0823V163.294V163.294Z" fill="#563D7C"/>
<path d="M122.296 120.422V106.26H134.762C135.949 106.26 137.094 106.359 138.196 106.557C139.298 106.755 140.274 107.108 141.122 107.617C141.969 108.126 142.648 108.833 143.157 109.737C143.666 110.642 143.92 111.801 143.92 113.214C143.92 115.758 143.157 117.595 141.63 118.726C140.104 119.856 138.154 120.422 135.779 120.422H122.296ZM108.983 95.9147V156.462H138.323C141.037 156.462 143.68 156.122 146.252 155.444C148.825 154.765 151.114 153.72 153.121 152.306C155.128 150.893 156.725 149.07 157.912 146.837C159.1 144.604 159.693 141.961 159.693 138.908C159.693 135.12 158.774 131.884 156.937 129.199C155.1 126.513 152.315 124.633 148.584 123.559C151.298 122.259 153.347 120.591 154.732 118.556C156.117 116.521 156.81 113.977 156.81 110.924C156.81 108.097 156.343 105.723 155.411 103.801C154.478 101.879 153.163 100.339 151.467 99.1795C149.771 98.0205 147.736 97.1865 145.362 96.678C142.987 96.169 140.359 95.9147 137.475 95.9147H108.983ZM122.296 146.116V129.495H136.797C139.68 129.495 141.998 130.159 143.751 131.488C145.503 132.817 146.38 135.035 146.38 138.145C146.38 139.728 146.111 141.028 145.574 142.046C145.037 143.063 144.316 143.869 143.411 144.462C142.507 145.056 141.461 145.48 140.274 145.735C139.086 145.989 137.843 146.116 136.542 146.116H122.296Z" fill="white"/>
<defs>
<filter id="filter0_d_22_655" x="0.723999" y="0.593872" width="260" height="260" filterUnits="userSpaceOnUse" color-interpolation-filters="sRGB">
<feFlood flood-opacity="0" result="BackgroundImageFix"/>
<feColorMatrix in="SourceAlpha" type="matrix" values="0 0 0 0 0 0 0 0 0 0 0 0 0 0 0 0 0 0 127 0" result="hardAlpha"/>
<feOffset dy="4"/>
<feGaussianBlur stdDeviation="20"/>
<feComposite in2="hardAlpha" operator="out"/>
<feColorMatrix type="matrix" values="0 0 0 0 0.0367917 0 0 0 0 0.0348958 0 0 0 0 0.0484375 0 0 0 0.1 0"/>
<feBlend mode="normal" in2="BackgroundImageFix" result="effect1_dropShadow_22_655"/>
<feBlend mode="normal" in="SourceGraphic" in2="effect1_dropShadow_22_655" result="shape"/>
</filter>
</defs>
</svg>
