<svg width="261" height="261" viewBox="0 0 261 261" fill="none" xmlns="http://www.w3.org/2000/svg">
<g filter="url(#filter0_d_22_665)">
<rect x="40.9329" y="36.7029" width="180" height="180" rx="32" fill="white"/>
<rect x="41.4329" y="37.2029" width="179" height="179" rx="31.5" stroke="white"/>
</g>
<path fill-rule="evenodd" clip-rule="evenodd" d="M139.57 87.7463L160.104 99.6028C160.697 98.9755 161.378 98.4371 162.124 98.0043C166.383 95.556 171.815 97.0097 174.289 101.269C176.737 105.528 175.283 110.959 171.025 113.433C170.283 113.86 169.485 114.178 168.653 114.377V138.099C169.476 138.299 170.266 138.615 170.999 139.037C175.283 141.511 176.737 146.943 174.263 151.202C171.815 155.46 166.358 156.914 162.099 154.466C161.274 153.993 160.53 153.389 159.898 152.679L139.488 164.463C139.787 165.368 139.938 166.315 139.937 167.268C139.937 172.164 135.959 176.168 131.037 176.168C126.115 176.168 122.137 172.19 122.137 167.268C122.137 166.393 122.263 165.548 122.497 164.75L101.968 152.897C101.382 153.512 100.711 154.04 99.9758 154.466C95.6915 156.914 90.2594 155.46 87.811 151.202C85.363 146.943 86.8167 141.511 91.0753 139.037C91.8089 138.615 92.5989 138.299 93.4216 138.099V114.377C92.5898 114.178 91.7911 113.86 91.0499 113.433C86.791 110.985 85.3373 105.528 87.7857 101.269C90.234 97.0097 95.6911 95.556 99.9501 98.0043C100.693 98.4348 101.37 98.9698 101.96 99.5927L122.501 87.7332C122.259 86.9113 122.136 86.0589 122.137 85.2022C122.137 80.2808 126.115 76.302 131.037 76.302C135.959 76.302 139.937 80.2804 139.937 85.2022C139.937 86.0868 139.809 86.9405 139.57 87.7463ZM137.43 91.3995L158.014 103.284C157.686 104.429 157.592 105.629 157.738 106.812C157.883 107.995 158.265 109.136 158.86 110.169C160.113 112.348 162.154 113.793 164.42 114.357V138.108C164.304 138.136 164.189 138.167 164.075 138.199L137.191 91.6373C137.272 91.5595 137.352 91.4803 137.43 91.3998V91.3995ZM124.889 91.6425L98.0055 138.204C97.8892 138.17 97.7723 138.139 97.6548 138.11V114.357C99.9202 113.793 101.961 112.348 103.214 110.169C103.811 109.134 104.193 107.991 104.338 106.805C104.483 105.62 104.387 104.418 104.057 103.27L124.635 91.3897C124.718 91.4755 124.802 91.5599 124.889 91.6421V91.6425ZM133.524 93.7516L160.401 140.303C159.786 140.89 159.258 141.563 158.834 142.301C158.412 143.035 158.096 143.825 157.896 144.648H104.179C103.979 143.825 103.663 143.035 103.24 142.301C102.815 141.568 102.288 140.899 101.676 140.314L128.558 93.7537C129.364 93.9858 130.199 94.1031 131.037 94.1023C131.901 94.1023 132.735 93.9801 133.524 93.7516ZM137.619 161.272L158.069 149.465C158.008 149.272 157.953 149.077 157.905 148.881H104.167C104.139 148.996 104.108 149.111 104.075 149.225L124.625 161.09C125.455 160.227 126.451 159.541 127.553 159.074C128.655 158.606 129.84 158.366 131.037 158.368C132.276 158.366 133.502 158.623 134.636 159.123C135.769 159.623 136.786 160.355 137.619 161.272Z" fill="#E535AB"/>
<defs>
<filter id="filter0_d_22_665" x="0.932861" y="0.702881" width="260" height="260" filterUnits="userSpaceOnUse" color-interpolation-filters="sRGB">
<feFlood flood-opacity="0" result="BackgroundImageFix"/>
<feColorMatrix in="SourceAlpha" type="matrix" values="0 0 0 0 0 0 0 0 0 0 0 0 0 0 0 0 0 0 127 0" result="hardAlpha"/>
<feOffset dy="4"/>
<feGaussianBlur stdDeviation="20"/>
<feComposite in2="hardAlpha" operator="out"/>
<feColorMatrix type="matrix" values="0 0 0 0 0.0367917 0 0 0 0 0.0348958 0 0 0 0 0.0484375 0 0 0 0.1 0"/>
<feBlend mode="normal" in2="BackgroundImageFix" result="effect1_dropShadow_22_665"/>
<feBlend mode="normal" in="SourceGraphic" in2="effect1_dropShadow_22_665" result="shape"/>
</filter>
</defs>
</svg>
