<svg width="261" height="261" viewBox="0 0 261 261" fill="none" xmlns="http://www.w3.org/2000/svg">
<g filter="url(#filter0_d_101_23)">
<rect x="40.6569" y="36.188" width="180" height="180" rx="32" fill="white"/>
<rect x="41.1569" y="36.688" width="179" height="179" rx="31.5" stroke="white"/>
</g>
<path d="M170.537 125.018C170.537 119.878 166.37 115.71 161.229 115.71C160.898 115.71 160.572 115.728 160.251 115.762L173.035 78.0555H118.706L131.472 115.729C131.284 115.717 131.095 115.711 130.907 115.71C125.766 115.71 121.599 119.877 121.599 125.018C121.599 129.173 124.322 132.691 128.08 133.888C126.095 137.327 123.597 140.424 120.761 143.099C116.905 146.737 112.492 149.496 107.718 151.196C102.035 148.276 99.3515 141.783 101.773 136.09C102.046 135.447 102.326 134.796 102.592 134.147C106.71 133.186 109.778 129.495 109.778 125.085C109.778 119.944 105.611 115.777 100.47 115.777C95.329 115.777 91.1619 119.944 91.1619 125.085C91.1619 128.237 92.7301 131.022 95.1277 132.706C92.8239 137.951 89.4374 143.441 88.3822 149.803C87.1177 157.428 88.378 165.522 94.9729 170.093C110.332 180.738 127.004 163.494 144.582 159.159C150.953 157.588 157.946 157.841 163.559 154.591C167.773 152.149 170.552 148.103 171.341 143.561C172.12 139.074 170.984 134.607 168.372 130.984C169.774 129.312 170.54 127.2 170.537 125.018Z" fill="#99425B"/>
<path d="M169.101 143.172C168.417 147.116 165.981 150.56 162.419 152.623C159.099 154.546 155.12 155.12 150.908 155.728C148.651 156.053 146.317 156.39 144.038 156.952C138.01 158.438 132.172 161.338 126.526 164.143C115.227 169.755 105.469 174.601 96.2682 168.224C89.5284 163.553 89.8395 154.911 90.6247 150.175C91.3525 145.787 93.32 141.746 95.2223 137.839C95.5464 137.174 95.8679 136.509 96.1867 135.842C97.1457 136.226 98.1519 136.478 99.1782 136.593C97.2415 142.984 100.287 149.934 106.679 153.218L107.555 153.667L108.481 153.337C113.534 151.537 118.191 148.65 122.321 144.753C124.991 142.234 127.287 139.447 129.174 136.469C129.747 136.556 130.326 136.599 130.907 136.599C136.774 136.599 141.632 132.213 142.384 126.549C144.785 126.461 147.336 126.46 149.752 126.548C150.503 132.213 155.362 136.6 161.229 136.6C163.682 136.6 165.958 135.831 167.832 134.525C169.134 137.189 169.619 140.187 169.101 143.172ZM100.47 118.05C104.349 118.05 107.505 121.206 107.505 125.085C107.505 126.478 107.096 127.778 106.394 128.872C105.225 130.696 103.237 131.946 100.953 132.101C100.794 132.112 100.632 132.12 100.47 132.12C99.6055 132.12 98.7775 131.962 98.0118 131.676C96.4698 131.096 95.1785 129.996 94.3606 128.566C93.7533 127.507 93.4342 126.306 93.4351 125.085C93.4351 121.206 96.591 118.05 100.47 118.05ZM123.872 125.018C123.872 121.494 126.478 118.568 129.863 118.062C130.204 118.01 130.552 117.984 130.907 117.984C133.162 117.984 135.17 119.052 136.458 120.707C136.78 121.12 137.056 121.568 137.279 122.041C137.716 122.973 137.942 123.989 137.941 125.018C137.941 125.581 137.873 126.127 137.748 126.652C137.063 129.522 134.615 131.716 131.617 132.017C131.383 132.041 131.147 132.053 130.907 132.053C129.554 132.054 128.229 131.662 127.094 130.926C125.158 129.671 123.872 127.493 123.872 125.018ZM153.233 116.653C151.702 118.114 150.6 119.966 150.047 122.009C147.396 121.911 144.741 121.911 142.09 122.009C141.495 119.801 140.261 117.853 138.601 116.373L145.88 101.654L153.233 116.653ZM121.876 80.3295H169.864L158.53 113.757C158.042 113.874 157.563 114.023 157.094 114.202L145.898 91.3619L134.67 114.066C134.18 113.898 133.68 113.763 133.172 113.662L121.876 80.3295ZM168.263 125.019C168.263 125.724 168.158 126.405 167.964 127.048C167.505 128.562 166.55 129.878 165.253 130.784C164.074 131.611 162.669 132.055 161.229 132.053C157.981 132.053 155.241 129.84 154.435 126.842C154.275 126.248 154.194 125.635 154.194 125.019C154.194 124.057 154.388 123.14 154.739 122.305C154.92 121.877 155.143 121.469 155.405 121.085C156.671 119.216 158.807 117.984 161.229 117.984C161.451 117.984 161.67 117.995 161.887 118.016C165.459 118.349 168.264 121.361 168.264 125.019H168.263ZM172.81 125.019C172.81 119.365 168.736 114.647 163.371 113.639L176.206 75.7822H115.535L128.39 113.716C123.211 114.868 119.326 119.497 119.326 125.018C119.326 129.165 121.517 132.806 124.801 134.853C123.221 137.206 121.348 139.421 119.202 141.446C115.797 144.657 112.005 147.093 107.917 148.695C103.799 146.108 102.058 141.23 103.865 136.98L104.007 136.647L104.273 136.022C108.796 134.444 112.051 130.139 112.051 125.085C112.051 118.699 106.856 113.504 100.47 113.504C94.0842 113.504 88.8882 118.699 88.8882 125.085C88.8882 128.308 90.2133 131.227 92.3456 133.329C91.9479 134.172 91.5442 135.012 91.1346 135.848C89.1848 139.852 86.9752 144.391 86.1394 149.431C84.4798 159.44 87.157 167.442 93.6782 171.961C97.6352 174.704 101.654 175.782 105.698 175.782C113.312 175.782 121.015 171.957 128.549 168.214C133.974 165.52 139.585 162.733 145.127 161.366C147.189 160.858 149.31 160.552 151.557 160.228C156.012 159.585 160.618 158.921 164.698 156.558C169.428 153.818 172.665 149.223 173.581 143.95C174.367 139.424 173.421 134.891 171.114 131.046C172.226 129.232 172.813 127.146 172.81 125.018V125.019Z" fill="white"/>
<defs>
<filter id="filter0_d_101_23" x="0.65686" y="0.187988" width="260" height="260" filterUnits="userSpaceOnUse" color-interpolation-filters="sRGB">
<feFlood flood-opacity="0" result="BackgroundImageFix"/>
<feColorMatrix in="SourceAlpha" type="matrix" values="0 0 0 0 0 0 0 0 0 0 0 0 0 0 0 0 0 0 127 0" result="hardAlpha"/>
<feOffset dy="4"/>
<feGaussianBlur stdDeviation="20"/>
<feComposite in2="hardAlpha" operator="out"/>
<feColorMatrix type="matrix" values="0 0 0 0 0.0367917 0 0 0 0 0.0348958 0 0 0 0 0.0484375 0 0 0 0.1 0"/>
<feBlend mode="normal" in2="BackgroundImageFix" result="effect1_dropShadow_101_23"/>
<feBlend mode="normal" in="SourceGraphic" in2="effect1_dropShadow_101_23" result="shape"/>
</filter>
</defs>
</svg>
