<svg width="2500" height="2090" viewBox="0 0 256 214" xmlns="http://www.w3.org/2000/svg" preserveAspectRatio="xMidYMid"><defs><linearGradient x1="5.603%" y1="10.334%" x2="91.025%" y2="83.141%" id="a"><stop stop-color="#AA4A9B" offset="0%"/><stop stop-color="#F05922" offset="100%"/></linearGradient><linearGradient x1="1.963%" y1="101.045%" x2="97.366%" y2="13.164%" id="b"><stop stop-color="#FFE42E" offset="0%"/><stop stop-color="#ED417C" offset="100%"/></linearGradient><linearGradient x1="12.267%" y1="92.394%" x2="99.472%" y2="-3.945%" id="c"><stop stop-color="#FFE42E" offset="0%"/><stop stop-color="#F05922" offset="100%"/></linearGradient></defs><path d="M145.918 103.058L33.628 5.407a19.71 19.71 0 1 0-22.971 31.642l126.302 78.409.573.358a7.633 7.633 0 1 0 8.386-12.758z" fill="url(#a)"/><path d="M255.79 118.665a27.88 27.88 0 0 0-42.322-22.72L55.79 185.695l-.268.144a14.144 14.144 0 1 0 11.02 26.052l171.795-66.296.43-.179a27.88 27.88 0 0 0 17.021-26.751z" fill="url(#b)"/><path d="M128.806 114.49a7.633 7.633 0 0 0-12.954-7.991l-66.565 84.464-.143.287a14.137 14.137 0 1 0 24.494 14.011l54.702-90.018c.17-.242.326-.493.466-.753z" fill="url(#c)"/><path d="M81.718 63.783h91.416v91.416H81.718z"/><path d="M116.049 106.677l-2.347-3.404a4.712 4.712 0 0 0 3.064-4.604 4.659 4.659 0 0 0-1.326-3.476 6.594 6.594 0 0 0-4.856-1.595h-7.042.072v14.872h4.121v-4.516h1.792l3.01 4.516h2.756l-.015.035h4.319l1.057-2.687h5.787l1.057 2.687h4.426l-6.343-15.015h-3.978l-5.554 13.187zm-26.447 31.375h34.277v5.716H89.602v-5.716zm-.376-50.206l2.652-2.508a3.01 3.01 0 0 0 2.347 1.38 1.792 1.792 0 0 0 1.684-2.079v-9.425h4.103v9.443a5.537 5.537 0 0 1-1.469 4.193 5.608 5.608 0 0 1-4.085 1.505 6.092 6.092 0 0 1-5.232-2.509zm11.736-12.632h11.987v3.494h-7.902v2.276h7.167v3.26h-7.167v2.366h8.01v3.584h-12.095V75.214zm17.398 3.62h-4.443V75.25h13.044v3.584h-4.462v11.288h-4.12V78.834h-.019zM89.602 93.598h7.633a5.572 5.572 0 0 1 4.068 1.326 3.35 3.35 0 0 1 .95 2.419 3.44 3.44 0 0 1-2.294 3.314 3.584 3.584 0 0 1 2.956 3.584c0 2.562-2.078 4.103-5.644 4.103h-7.687V93.598h.018zm8.6 4.605c0-.824-.662-1.272-1.791-1.272h-2.706v2.616h2.598c1.255 0 1.971-.43 1.971-1.29l-.071-.054zm-1.433 4.228h-3.153v2.742h3.19c1.271 0 1.97-.484 1.97-1.362.018-.896-.61-1.38-2.007-1.38zm13.654-1.666a1.792 1.792 0 0 0 2.221-1.792 1.792 1.792 0 0 0-2.24-1.792h-2.723v3.584h2.742zm14.764 1.828l-1.666-4.211-1.685 4.21h3.35zm7.22-8.995h4.122v14.907h-4.121V93.598zm5.161 0h3.852l6.128 7.884v-7.884h4.086v14.907h-3.584l-6.379-8.17v8.17h-4.085V93.598h-.018zm14.316 12.686l2.294-2.742a7.723 7.723 0 0 0 4.838 1.792c1.128 0 1.791-.376 1.791-1.021 0-.645-.483-.95-2.526-1.452-3.171-.716-5.626-1.612-5.626-4.658 0-2.76 2.186-4.766 5.77-4.766a9.371 9.371 0 0 1 6.127 1.97l-2.06 2.921a7.31 7.31 0 0 0-4.175-1.47c-1.004 0-1.487.413-1.487.95 0 .681.52.986 2.598 1.452 3.404.752 5.536 1.792 5.536 4.64 0 3.047-2.4 4.856-6.02 4.856a10.446 10.446 0 0 1-7.06-2.472z" fill="#FFF"/></svg>