<svg width="43" height="44" viewBox="0 0 43 44" fill="none" xmlns="http://www.w3.org/2000/svg">
<path fill-rule="evenodd" clip-rule="evenodd" d="M21.715 13.7681C24.396 13.252 27.075 13.9929 29.253 15.8524C32.341 18.4889 32.543 23.0005 29.793 27.9208C27.799 31.4889 25.325 34.8939 22.933 38.1869C21.922 39.5795 20.876 41.0193 19.893 42.4368C19.542 42.9435 18.874 43.1373 18.21 43.1373C17.787 43.1373 17.366 43.059 17.029 42.9331C16.7027 42.8689 16.4445 42.7445 16.2601 42.5642L15.7253 42.0404C11.8978 38.2931 7.93969 34.4198 4.51319 30.2688C1.02199 26.0402 -0.0861081 21.7819 1.39289 18.2817C2.82029 14.9032 6.58709 13.0293 10.1511 13.9225C12.3357 14.4696 14.0234 15.8166 15.279 18.0227C16.8365 15.8114 19.158 14.2577 21.715 13.7681ZM8.56519 16.3052C7.90859 16.3052 7.20729 16.6093 6.43859 17.2243C3.95629 19.2101 4.1729 22.8673 5.4885 25.6107C6.6504 28.0333 8.60199 30.0901 10.4899 32.0791C10.8145 32.4215 11.1391 32.7629 11.4573 33.1049C13.5676 35.3664 15.4876 37.4336 17.348 39.5277L22.759 31.8651C23.061 31.4387 23.374 31.0076 23.692 30.5714C25.505 28.0778 27.38 25.4987 27.82 22.6166L27.853 22.3606C28.057 20.485 27.383 18.5693 26.095 17.4196C25.342 16.7466 24.038 16.043 22.112 16.516C19.067 17.2647 17.432 20.4929 17.162 23.3606C17.096 24.0559 16.4745 24.5289 15.5387 24.5957C14.6688 24.6594 13.6366 24.3455 13.4311 23.5129C12.7261 20.6473 11.2023 17.0683 9.22589 16.4124C9.01039 16.3409 8.79069 16.3052 8.56519 16.3052ZM39.225 9.36758C39.8 7.02424 43.515 7.84127 42.94 10.1841C42.322 12.7041 40.627 14.5542 38.261 15.622C37.321 16.0468 36.152 15.2811 35.868 14.4086C35.528 13.3626 36.17 12.4767 37.103 12.0554C38.2 11.5602 38.95 10.4908 39.225 9.36758ZM27.48 3.57223C27.815 2.6122 28.656 1.91277 29.753 2.15421C30.677 2.3573 31.53 3.43183 31.195 4.38875L29.763 8.48842C29.427 9.44845 28.586 10.1479 27.49 9.90645C26.566 9.70335 25.713 8.62883 26.048 7.67139C26.525 6.30518 27.002 4.93896 27.48 3.57223ZM16.077 1.46685C16.4227 0.509932 17.245 -0.194676 18.35 0.0483105C19.266 0.249849 20.137 1.32904 19.792 2.28337C19.459 3.20454 19.468 3.72263 19.79 4.54537C20.16 5.49296 19.492 6.60324 18.555 6.89751C17.536 7.21769 16.5307 6.62655 16.1624 5.68362C15.6439 4.3573 15.5907 2.80975 16.077 1.46685Z" fill="black"/>
</svg>
