<svg width="43" height="44" viewBox="0 0 43 44" fill="none" xmlns="http://www.w3.org/2000/svg">
<path fill-rule="evenodd" clip-rule="evenodd" d="M20.9611 13.7681C23.6421 13.252 26.3211 13.9929 28.4991 15.8524C31.5871 18.4889 31.7891 23.0005 29.0391 27.9208C27.0451 31.4889 24.5711 34.8939 22.1791 38.1869C21.1681 39.5795 20.1221 41.0193 19.1391 42.4368C18.7881 42.9435 18.1201 43.1373 17.4561 43.1373C17.0331 43.1373 16.6121 43.059 16.2751 42.9331C15.9488 42.8689 15.6906 42.7445 15.5062 42.5642L14.9714 42.0404C11.1439 38.2931 7.18579 34.4198 3.75929 30.2688C0.268086 26.0402 -0.840014 21.7819 0.638986 18.2817C2.06639 14.9032 5.83319 13.0293 9.39719 13.9225C11.5818 14.4696 13.2695 15.8166 14.5251 18.0227C16.0826 15.8114 18.4041 14.2577 20.9611 13.7681ZM7.81129 16.3052C7.15469 16.3052 6.45339 16.6093 5.68469 17.2243C3.20239 19.2101 3.41899 22.8673 4.73459 25.6107C5.89649 28.0333 7.84809 30.0901 9.73599 32.0791C10.0606 32.4215 10.3852 32.7629 10.7034 33.1049C12.8137 35.3664 14.7337 37.4336 16.5941 39.5277L22.0051 31.8651C22.3071 31.4387 22.6201 31.0076 22.9381 30.5714C24.7511 28.0778 26.6261 25.4987 27.0661 22.6166L27.0991 22.3606C27.3031 20.485 26.6291 18.5693 25.3411 17.4196C24.5881 16.7466 23.2841 16.043 21.3581 16.516C18.3131 17.2647 16.6781 20.4929 16.4081 23.3606C16.3421 24.0559 15.7206 24.5289 14.7848 24.5957C13.9149 24.6594 12.8827 24.3455 12.6772 23.5129C11.9722 20.6473 10.4484 17.0683 8.47199 16.4124C8.25649 16.3409 8.03679 16.3052 7.81129 16.3052ZM38.4711 9.36758C39.0461 7.02424 42.7611 7.84127 42.1861 10.1841C41.5681 12.7041 39.8731 14.5542 37.5071 15.622C36.5671 16.0468 35.3981 15.2811 35.1141 14.4086C34.7741 13.3626 35.4161 12.4767 36.3491 12.0554C37.4461 11.5602 38.1961 10.4908 38.4711 9.36758ZM26.7261 3.57223C27.0611 2.6122 27.9021 1.91277 28.9991 2.15421C29.9231 2.3573 30.7761 3.43183 30.4411 4.38875L29.0091 8.48842C28.6731 9.44845 27.8321 10.1479 26.7361 9.90645C25.8121 9.70335 24.9591 8.62883 25.2941 7.67139C25.7711 6.30518 26.2481 4.93896 26.7261 3.57223ZM15.3231 1.46685C15.6688 0.509932 16.4911 -0.194676 17.5961 0.0483105C18.5121 0.249849 19.3831 1.32904 19.0381 2.28337C18.7051 3.20454 18.7141 3.72263 19.0361 4.54537C19.4061 5.49296 18.7381 6.60324 17.8011 6.89751C16.7821 7.21769 15.7768 6.62655 15.4085 5.68362C14.89 4.3573 14.8368 2.80975 15.3231 1.46685Z" fill="white"/>
</svg>
