<svg width="261" height="260" viewBox="0 0 261 260" fill="none" xmlns="http://www.w3.org/2000/svg">
<g filter="url(#filter0_d_20_1664)">
<rect x="40.724" y="36" width="180" height="180" rx="32" fill="white"/>
<rect x="41.224" y="36.5" width="179" height="179" rx="31.5" stroke="white"/>
</g>
<g clip-path="url(#clip0_20_1664)">
<path d="M146.477 116.008H163.895V119.223H156.986V136.137H153.53V119.223H146.477V116.008Z" fill="black"/>
<path d="M117.83 116.008V119.223H103.869V124.395H115.097V127.61H103.869V132.922H117.83V136.137H100.414V119.223H100.412V116.008H117.83Z" fill="black"/>
<path d="M126.528 116.017H122.007L138.201 136.145H142.736L134.637 126.088L142.723 116.032L138.201 116.039L132.374 123.277L126.528 116.017Z" fill="black"/>
<path d="M131.168 130.395L128.903 127.579L121.994 136.16H126.528L131.168 130.395Z" fill="black"/>
<path fill-rule="evenodd" clip-rule="evenodd" d="M100.535 136.137L84.3186 116H80V136.128H83.4548V120.302L96.1946 136.137H100.535Z" fill="black"/>
<path d="M164.672 136.014C164.419 136.014 164.204 135.926 164.023 135.751C163.843 135.576 163.754 135.363 163.756 135.112C163.754 134.867 163.843 134.658 164.023 134.482C164.204 134.307 164.419 134.219 164.672 134.219C164.915 134.219 165.128 134.307 165.308 134.482C165.491 134.658 165.582 134.867 165.585 135.112C165.582 135.278 165.54 135.43 165.456 135.566C165.369 135.705 165.259 135.813 165.121 135.892C164.985 135.972 164.836 136.014 164.672 136.014Z" fill="black"/>
<path d="M170.568 127.534H172.099V133.433C172.097 133.975 171.98 134.438 171.751 134.828C171.519 135.218 171.198 135.516 170.786 135.726C170.377 135.933 169.897 136.039 169.351 136.039C168.852 136.039 168.406 135.949 168.008 135.774C167.61 135.599 167.294 135.336 167.062 134.99C166.828 134.644 166.713 134.212 166.713 133.696H168.246C168.249 133.922 168.3 134.118 168.398 134.282C168.497 134.445 168.632 134.57 168.806 134.658C168.981 134.745 169.183 134.789 169.41 134.789C169.656 134.789 169.866 134.738 170.037 134.635C170.208 134.533 170.339 134.381 170.43 134.178C170.519 133.977 170.566 133.728 170.568 133.433V127.534Z" fill="black"/>
<path d="M178.399 129.841C178.361 129.484 178.198 129.204 177.912 129.006C177.624 128.805 177.252 128.706 176.795 128.706C176.475 128.706 176.199 128.755 175.969 128.849C175.74 128.946 175.562 129.075 175.44 129.239C175.318 129.403 175.257 129.59 175.253 129.8C175.253 129.975 175.295 130.127 175.377 130.254C175.459 130.383 175.569 130.492 175.711 130.579C175.852 130.669 176.009 130.743 176.18 130.803C176.353 130.863 176.526 130.914 176.699 130.955L177.498 131.151C177.818 131.225 178.13 131.324 178.427 131.451C178.724 131.576 178.993 131.735 179.23 131.926C179.466 132.118 179.654 132.349 179.792 132.618C179.93 132.888 180 133.204 180 133.569C180 134.06 179.874 134.491 179.618 134.865C179.363 135.237 178.996 135.527 178.514 135.737C178.034 135.945 177.453 136.051 176.77 136.051C176.109 136.051 175.534 135.949 175.049 135.746C174.562 135.546 174.183 135.25 173.909 134.863C173.635 134.475 173.488 134.002 173.467 133.447H174.984C175.005 133.737 175.098 133.979 175.257 134.175C175.419 134.369 175.63 134.512 175.887 134.609C176.147 134.704 176.437 134.752 176.758 134.752C177.093 134.752 177.388 134.701 177.643 134.602C177.895 134.503 178.094 134.365 178.237 134.185C178.383 134.007 178.455 133.797 178.457 133.557C178.455 133.338 178.389 133.156 178.263 133.013C178.134 132.87 177.956 132.75 177.729 132.653C177.5 132.556 177.233 132.468 176.929 132.392L175.96 132.148C175.26 131.97 174.705 131.7 174.3 131.338C173.893 130.976 173.691 130.496 173.691 129.894C173.691 129.401 173.827 128.967 174.101 128.596C174.372 128.224 174.745 127.936 175.215 127.73C175.688 127.523 176.222 127.421 176.816 127.421C177.42 127.421 177.949 127.523 178.406 127.73C178.862 127.936 179.221 128.222 179.48 128.586C179.74 128.951 179.876 129.368 179.883 129.841H178.399Z" fill="black"/>
</g>
<defs>
<filter id="filter0_d_20_1664" x="0.723999" y="0" width="260" height="260" filterUnits="userSpaceOnUse" color-interpolation-filters="sRGB">
<feFlood flood-opacity="0" result="BackgroundImageFix"/>
<feColorMatrix in="SourceAlpha" type="matrix" values="0 0 0 0 0 0 0 0 0 0 0 0 0 0 0 0 0 0 127 0" result="hardAlpha"/>
<feOffset dy="4"/>
<feGaussianBlur stdDeviation="20"/>
<feComposite in2="hardAlpha" operator="out"/>
<feColorMatrix type="matrix" values="0 0 0 0 0.0367917 0 0 0 0 0.0348958 0 0 0 0 0.0484375 0 0 0 0.1 0"/>
<feBlend mode="normal" in2="BackgroundImageFix" result="effect1_dropShadow_20_1664"/>
<feBlend mode="normal" in="SourceGraphic" in2="effect1_dropShadow_20_1664" result="shape"/>
</filter>
<clipPath id="clip0_20_1664">
<rect width="100" height="20.3046" fill="white" transform="translate(80 116)"/>
</clipPath>
</defs>
</svg>
