<svg width="136" height="46" viewBox="0 0 136 46" fill="none" xmlns="http://www.w3.org/2000/svg">
<path d="M23.0977 29.584C23.0977 30.3691 22.998 31.0781 22.7988 31.7109C22.5996 32.332 22.3359 32.8828 22.0078 33.3633C21.6797 33.832 21.2988 34.2363 20.8652 34.5762C20.4316 34.9043 19.9746 35.1738 19.4941 35.3848C19.0254 35.5957 18.5508 35.7539 18.0703 35.8594C17.5898 35.9531 17.1328 36 16.6992 36H8.45508V31.4297H16.6992C17.3086 31.4297 17.7656 31.2715 18.0703 30.9551C18.375 30.6387 18.5273 30.1816 18.5273 29.584V23.4316C18.5273 22.7988 18.3691 22.3301 18.0527 22.0254C17.748 21.7207 17.2969 21.5684 16.6992 21.5684H8.49023C7.86914 21.5684 7.40039 21.7266 7.08398 22.043C6.76758 22.3477 6.60938 22.7988 6.60938 23.3965V41.9414H2.03906V23.3965C2.03906 22.6113 2.13867 21.9082 2.33789 21.2871C2.53711 20.666 2.80078 20.1211 3.12891 19.6523C3.46875 19.1719 3.85547 18.7676 4.28906 18.4395C4.72266 18.0996 5.17383 17.8242 5.64258 17.6133C6.12305 17.4023 6.60352 17.25 7.08398 17.1562C7.57617 17.0508 8.0332 16.998 8.45508 16.998H16.6992C17.4844 16.998 18.1875 17.0977 18.8086 17.2969C19.4297 17.4961 19.9746 17.7598 20.4434 18.0879C20.9238 18.416 21.3281 18.7969 21.6562 19.2305C21.9961 19.6641 22.2715 20.1211 22.4824 20.6016C22.6934 21.0703 22.8457 21.5449 22.9395 22.0254C23.0449 22.5059 23.0977 22.9629 23.0977 23.3965V29.584ZM43.6289 21.5684H33.3457C32.7246 21.5684 32.2559 21.7266 31.9395 22.043C31.623 22.3477 31.4648 22.7988 31.4648 23.3965V36H26.8945V23.3965C26.8945 22.6113 26.9941 21.9082 27.1934 21.2871C27.3926 20.666 27.6562 20.1211 27.9844 19.6523C28.3242 19.1719 28.7109 18.7676 29.1445 18.4395C29.5781 18.0996 30.0293 17.8242 30.498 17.6133C30.9785 17.4023 31.459 17.25 31.9395 17.1562C32.4316 17.0508 32.8887 16.998 33.3105 16.998H43.6289V21.5684ZM64.793 29.707C64.793 30.3398 64.6816 31.0254 64.459 31.7637C64.2363 32.4902 63.873 33.1699 63.3691 33.8027C62.877 34.4238 62.2266 34.9453 61.418 35.3672C60.6211 35.7891 59.6484 36 58.5 36H50.2559C49.623 36 48.9375 35.8887 48.1992 35.666C47.4727 35.4434 46.793 35.0859 46.1602 34.5938C45.5391 34.0898 45.0176 33.4395 44.5957 32.6426C44.1738 31.834 43.9629 30.8555 43.9629 29.707C43.9629 29.0742 44.0742 28.3887 44.2969 27.6504C44.5195 26.9121 44.877 26.2324 45.3691 25.6113C45.873 24.9785 46.5234 24.4512 47.3203 24.0293C48.1289 23.6074 49.1074 23.3965 50.2559 23.3965H58.5V27.7559H50.2559C49.6348 27.7559 49.1543 27.9492 48.8145 28.3359C48.4746 28.7109 48.3047 29.1797 48.3047 29.7422C48.3047 30.3398 48.498 30.8086 48.8848 31.1484C49.2832 31.4766 49.752 31.6406 50.291 31.6406H58.5C59.1211 31.6406 59.6016 31.4531 59.9414 31.0781C60.2812 30.7031 60.4512 30.2344 60.4512 29.6719V23.291C60.4512 22.6934 60.2637 22.2188 59.8887 21.8672C59.5254 21.5156 59.0625 21.3398 58.5 21.3398H48.4629V16.998H58.5C59.1328 16.998 59.8125 17.1094 60.5391 17.332C61.2773 17.5547 61.957 17.918 62.5781 18.4219C63.2109 18.9141 63.7383 19.5645 64.1602 20.373C64.582 21.1699 64.793 22.1426 64.793 23.291V29.707ZM89.7539 36H85.1836V25.4531C85.1836 24.8555 85.0781 24.3223 84.8672 23.8535C84.668 23.373 84.3926 22.9629 84.041 22.623C83.6895 22.2832 83.2734 22.0254 82.793 21.8496C82.3242 21.6621 81.8145 21.5684 81.2637 21.5684H73.2656V36H68.6953V19.2656C68.6953 18.9492 68.7539 18.6562 68.8711 18.3867C68.9883 18.1055 69.1523 17.8652 69.3633 17.666C69.5742 17.4551 69.8203 17.291 70.1016 17.1738C70.3828 17.0566 70.6816 16.998 70.998 16.998H81.2988C81.873 16.998 82.4766 17.0625 83.1094 17.1914C83.7539 17.3203 84.3867 17.5312 85.0078 17.8242C85.6406 18.1055 86.2383 18.4688 86.8008 18.9141C87.375 19.3477 87.8789 19.8809 88.3125 20.5137C88.7578 21.1348 89.1094 21.8555 89.3672 22.6758C89.625 23.4961 89.7539 24.4219 89.7539 25.4531V36ZM98.4023 13.0957H93.832V8.96484H98.4023V13.0957ZM98.4023 37.8281C98.4023 38.6133 98.3027 39.3164 98.1035 39.9375C97.9043 40.5703 97.6406 41.1211 97.3125 41.5898C96.9844 42.0703 96.6035 42.4746 96.1699 42.8027C95.7363 43.1426 95.2793 43.418 94.7988 43.6289C94.3301 43.8398 93.8555 43.9922 93.375 44.0859C92.8945 44.1914 92.4375 44.2441 92.0039 44.2441H83.7598V39.6738H92.0039C92.6133 39.6738 93.0703 39.5156 93.375 39.1992C93.6797 38.8828 93.832 38.4258 93.832 37.8281V16.998H98.4023V37.8281ZM122.414 29.707C122.414 30.3398 122.303 31.0254 122.08 31.7637C121.857 32.4902 121.494 33.1699 120.99 33.8027C120.498 34.4238 119.848 34.9453 119.039 35.3672C118.242 35.7891 117.27 36 116.121 36H107.877C107.244 36 106.559 35.8887 105.82 35.666C105.094 35.4434 104.414 35.0859 103.781 34.5938C103.16 34.0898 102.639 33.4395 102.217 32.6426C101.795 31.834 101.584 30.8555 101.584 29.707C101.584 29.0742 101.695 28.3887 101.918 27.6504C102.141 26.9121 102.498 26.2324 102.99 25.6113C103.494 24.9785 104.145 24.4512 104.941 24.0293C105.75 23.6074 106.729 23.3965 107.877 23.3965H116.121V27.7559H107.877C107.256 27.7559 106.775 27.9492 106.436 28.3359C106.096 28.7109 105.926 29.1797 105.926 29.7422C105.926 30.3398 106.119 30.8086 106.506 31.1484C106.904 31.4766 107.373 31.6406 107.912 31.6406H116.121C116.742 31.6406 117.223 31.4531 117.562 31.0781C117.902 30.7031 118.072 30.2344 118.072 29.6719V23.291C118.072 22.6934 117.885 22.2188 117.51 21.8672C117.146 21.5156 116.684 21.3398 116.121 21.3398H106.084V16.998H116.121C116.754 16.998 117.434 17.1094 118.16 17.332C118.898 17.5547 119.578 17.918 120.199 18.4219C120.832 18.9141 121.359 19.5645 121.781 20.373C122.203 21.1699 122.414 22.1426 122.414 23.291V29.707ZM134.666 36H132.627C131.971 36 131.268 35.8887 130.518 35.666C129.779 35.4434 129.088 35.0801 128.443 34.5762C127.799 34.0605 127.266 33.3984 126.844 32.5898C126.422 31.7695 126.211 30.7676 126.211 29.584V8.96484H130.781V29.584C130.781 30.1465 130.957 30.5977 131.309 30.9375C131.66 31.2656 132.1 31.4297 132.627 31.4297H134.666V36Z" fill="white"/>
<line x1="9.99713" y1="41.1344" x2="80.0019" y2="41.1344" stroke="url(#paint0_linear_5_211)" stroke-width="3"/>
<line x1="101.942" y1="41.1965" x2="135.014" y2="41.5001" stroke="url(#paint1_linear_5_211)" stroke-width="3"/>
<defs>
<linearGradient id="paint0_linear_5_211" x1="11.1262" y1="43.6344" x2="80.0019" y2="43.6344" gradientUnits="userSpaceOnUse">
<stop stop-color="#FFBE0B"/>
<stop offset="0.352083" stop-color="#FB5607"/>
<stop offset="0.695833" stop-color="#EF476F"/>
<stop offset="1" stop-color="#FF006E"/>
</linearGradient>
<linearGradient id="paint1_linear_5_211" x1="102.892" y1="43.7053" x2="134.991" y2="44" gradientUnits="userSpaceOnUse">
<stop stop-color="#FF006E"/>
<stop offset="0.336757" stop-color="#8338EC"/>
<stop offset="1" stop-color="#3A86FF"/>
</linearGradient>
</defs>
</svg>
