<svg width="261" height="260" viewBox="0 0 261 260" fill="none" xmlns="http://www.w3.org/2000/svg">
<g filter="url(#filter0_d_20_1668)">
<rect x="40.724" y="36" width="180" height="180" rx="32" fill="white"/>
<rect x="41.224" y="36.5" width="179" height="179" rx="31.5" stroke="white"/>
</g>
<path d="M167.212 131.911C163.724 131.929 160.692 132.77 158.153 134.012C157.221 132.167 156.29 130.523 156.125 129.317C155.943 127.911 155.723 127.053 155.943 125.372C156.162 123.692 157.148 121.299 157.13 121.116C157.112 120.934 156.911 120.075 154.901 120.057C152.892 120.039 151.157 120.441 150.956 120.97C150.755 121.5 150.372 122.705 150.116 123.947C149.769 125.774 146.098 132.295 143.997 135.71C143.321 134.377 142.737 133.208 142.609 132.276C142.426 130.87 142.207 130.012 142.426 128.331C142.645 126.651 143.632 124.258 143.613 124.075C143.595 123.893 143.394 123.034 141.385 123.016C139.376 122.998 137.641 123.4 137.44 123.929C137.239 124.459 137.02 125.701 136.6 126.906C136.179 128.112 131.303 138.998 130.024 141.811C129.366 143.254 128.8 144.405 128.398 145.19C128.398 145.19 128.38 145.245 128.325 145.336C127.978 146.012 127.777 146.377 127.777 146.377C127.777 146.377 127.777 146.377 127.777 146.396C127.503 146.889 127.211 147.345 127.065 147.345C126.955 147.345 126.754 146.03 127.102 144.24C127.832 140.459 129.567 134.578 129.549 134.377C129.549 134.267 129.878 133.245 128.417 132.715C126.992 132.185 126.481 133.062 126.353 133.062C126.225 133.062 126.133 133.372 126.133 133.372C126.133 133.372 127.723 126.76 123.101 126.76C120.215 126.76 116.234 129.92 114.261 132.77C113.019 133.445 110.37 134.888 107.539 136.441C106.462 137.044 105.347 137.647 104.306 138.213C104.233 138.14 104.16 138.048 104.087 137.975C98.4979 132.003 88.1597 127.783 88.5981 119.765C88.7625 116.842 89.7671 109.171 108.453 99.8554C123.832 92.2753 136.07 94.3758 138.189 99.0335C141.221 105.682 131.631 118.029 115.74 119.819C109.676 120.495 106.498 118.157 105.694 117.281C104.854 116.367 104.726 116.313 104.416 116.495C103.904 116.769 104.233 117.591 104.416 118.066C104.891 119.308 106.845 121.5 110.151 122.578C113.074 123.527 120.179 124.057 128.782 120.733C138.408 117.007 145.933 106.65 143.723 97.9741C141.513 89.1702 126.901 86.266 113.074 91.1794C104.854 94.1018 95.9408 98.7047 89.5296 104.696C81.913 111.819 80.7074 118.011 81.2006 120.605C82.9724 129.811 95.6668 135.802 100.745 140.24C100.489 140.386 100.251 140.514 100.05 140.624C97.5116 141.884 87.8309 146.944 85.4199 152.295C82.6801 158.359 85.8583 162.707 87.9588 163.291C94.4795 165.099 101.183 161.848 104.781 156.478C108.38 151.108 107.941 144.131 106.279 140.934C106.261 140.898 106.242 140.861 106.206 140.825C106.863 140.441 107.539 140.039 108.197 139.656C109.494 138.889 110.772 138.176 111.868 137.592C111.247 139.29 110.791 141.318 110.571 144.24C110.297 147.674 111.704 152.131 113.549 153.884C114.371 154.652 115.339 154.67 115.96 154.67C118.115 154.67 119.083 152.88 120.161 150.761C121.476 148.167 122.663 145.154 122.663 145.154C122.663 145.154 121.184 153.3 125.202 153.3C126.663 153.3 128.143 151.4 128.8 150.432C128.8 150.451 128.8 150.451 128.8 150.451C128.8 150.451 128.837 150.396 128.91 150.268C129.056 150.03 129.147 149.884 129.147 149.884C129.147 149.884 129.147 149.866 129.147 149.848C129.732 148.825 131.047 146.505 133.001 142.651C135.522 137.683 137.951 131.473 137.951 131.473C137.951 131.473 138.17 132.989 138.919 135.509C139.358 136.989 140.271 138.615 141.001 140.185C140.417 141.007 140.052 141.464 140.052 141.464C140.052 141.464 140.052 141.464 140.07 141.482C139.595 142.103 139.084 142.779 138.517 143.437C136.526 145.811 134.152 148.533 133.823 149.318C133.44 150.25 133.531 150.925 134.262 151.473C134.791 151.875 135.741 151.93 136.709 151.875C138.499 151.747 139.759 151.309 140.38 151.035C141.349 150.688 142.481 150.158 143.54 149.373C145.495 147.93 146.682 145.866 146.572 143.144C146.518 141.647 146.024 140.149 145.422 138.742C145.604 138.487 145.769 138.231 145.951 137.975C149.038 133.464 151.431 128.514 151.431 128.514C151.431 128.514 151.65 130.03 152.399 132.55C152.764 133.829 153.513 135.217 154.171 136.569C151.267 138.925 149.477 141.665 148.837 143.455C147.687 146.779 148.582 148.277 150.28 148.624C151.047 148.788 152.143 148.423 152.947 148.076C153.97 147.747 155.175 147.181 156.326 146.341C158.281 144.898 160.162 142.889 160.052 140.167C159.997 138.925 159.669 137.701 159.212 136.514C161.678 135.491 164.856 134.925 168.911 135.4C177.605 136.423 179.322 141.848 178.993 144.131C178.665 146.414 176.838 147.656 176.235 148.04C175.633 148.423 175.432 148.551 175.487 148.825C175.56 149.227 175.852 149.208 176.363 149.135C177.076 149.008 180.93 147.291 181.094 143.09C181.368 137.72 176.254 131.856 167.212 131.911ZM100.142 154.524C97.2559 157.665 93.2375 158.853 91.5023 157.848C89.6392 156.77 90.3698 152.131 93.9133 148.807C96.0686 146.779 98.845 144.898 100.69 143.747C101.11 143.491 101.731 143.126 102.48 142.669C102.608 142.596 102.681 142.56 102.681 142.56C102.827 142.469 102.973 142.377 103.119 142.286C104.416 147.035 103.174 151.218 100.142 154.524ZM121.147 140.24C120.142 142.688 118.042 148.953 116.763 148.606C115.667 148.313 114.992 143.564 116.544 138.87C117.33 136.514 118.992 133.701 119.96 132.605C121.531 130.852 123.266 130.267 123.686 130.98C124.216 131.911 121.768 138.706 121.147 140.24ZM138.481 148.533C138.061 148.752 137.659 148.898 137.476 148.788C137.348 148.715 137.659 148.423 137.659 148.423C137.659 148.423 139.833 146.085 140.691 145.026C141.184 144.405 141.769 143.674 142.39 142.852C142.39 142.925 142.39 143.017 142.39 143.09C142.39 145.884 139.686 147.766 138.481 148.533ZM151.851 145.482C151.541 145.263 151.595 144.533 152.637 142.249C153.038 141.354 153.988 139.857 155.614 138.414C155.796 138.998 155.924 139.564 155.906 140.094C155.888 143.619 153.367 144.934 151.851 145.482Z" fill="#CD6799"/>
<defs>
<filter id="filter0_d_20_1668" x="0.723999" y="0" width="260" height="260" filterUnits="userSpaceOnUse" color-interpolation-filters="sRGB">
<feFlood flood-opacity="0" result="BackgroundImageFix"/>
<feColorMatrix in="SourceAlpha" type="matrix" values="0 0 0 0 0 0 0 0 0 0 0 0 0 0 0 0 0 0 127 0" result="hardAlpha"/>
<feOffset dy="4"/>
<feGaussianBlur stdDeviation="20"/>
<feComposite in2="hardAlpha" operator="out"/>
<feColorMatrix type="matrix" values="0 0 0 0 0.0367917 0 0 0 0 0.0348958 0 0 0 0 0.0484375 0 0 0 0.1 0"/>
<feBlend mode="normal" in2="BackgroundImageFix" result="effect1_dropShadow_20_1668"/>
<feBlend mode="normal" in="SourceGraphic" in2="effect1_dropShadow_20_1668" result="shape"/>
</filter>
</defs>
</svg>
