<svg width="261" height="261" viewBox="0 0 261 261" fill="none" xmlns="http://www.w3.org/2000/svg">
<g filter="url(#filter0_d_22_681)">
<rect x="40.724" y="36.8909" width="180" height="180" rx="32" fill="white"/>
<rect x="41.224" y="37.3909" width="179" height="179" rx="31.5" stroke="white"/>
</g>
<path d="M80.3806 76.4851H180.381V176.485H80.3806V76.4851Z" fill="#017ACB"/>
<path d="M128.396 113.516H133.193V121.798H120.224V158.641L119.881 158.735C119.412 158.86 113.24 158.86 111.912 158.719L110.849 158.626V121.798H97.8806V113.516L101.99 113.469C104.24 113.438 110.021 113.438 114.834 113.469C119.646 113.501 125.74 113.516 128.396 113.516ZM165.006 154.735C163.099 156.751 161.053 157.876 157.646 158.798C156.162 159.204 155.912 159.219 152.568 159.204C149.224 159.188 148.959 159.188 147.334 158.766C143.131 157.688 139.74 155.579 137.428 152.594C136.771 151.751 135.693 150.001 135.693 149.782C135.693 149.719 135.849 149.579 136.053 149.485C136.256 149.391 136.678 149.126 137.021 148.923C137.365 148.719 137.99 148.344 138.412 148.126C138.834 147.907 140.053 147.188 141.115 146.548C142.178 145.907 143.146 145.391 143.256 145.391C143.365 145.391 143.568 145.61 143.724 145.876C144.662 147.454 146.849 149.469 148.396 150.157C149.349 150.563 151.459 151.016 152.474 151.016C153.412 151.016 155.131 150.61 156.053 150.188C157.037 149.735 157.537 149.282 158.131 148.376C158.537 147.735 158.584 147.563 158.568 146.344C158.568 145.219 158.506 144.907 158.193 144.391C157.318 142.954 156.131 142.204 151.318 140.079C146.349 137.876 144.115 136.563 142.303 134.798C140.959 133.485 140.693 133.126 139.849 131.485C138.756 129.376 138.615 128.688 138.599 125.548C138.584 123.344 138.631 122.626 138.865 121.876C139.193 120.751 140.256 118.579 140.74 118.032C141.74 116.86 142.099 116.501 142.803 115.923C144.928 114.173 148.24 113.016 151.412 112.907C151.771 112.907 152.959 112.969 154.068 113.048C157.256 113.313 159.428 114.094 161.521 115.766C163.099 117.016 165.49 119.954 165.256 120.344C165.099 120.579 158.865 124.735 158.459 124.86C158.209 124.938 158.037 124.844 157.693 124.438C155.568 121.891 154.709 121.344 152.646 121.219C151.178 121.126 150.396 121.298 149.412 121.954C148.381 122.641 147.881 123.688 147.881 125.141C147.896 127.266 148.709 128.266 151.709 129.751C153.646 130.704 155.303 131.485 155.428 131.485C155.615 131.485 159.631 133.485 160.678 134.11C165.553 136.969 167.537 139.907 168.053 144.969C168.428 148.782 167.349 152.266 165.006 154.735Z" fill="white"/>
<defs>
<filter id="filter0_d_22_681" x="0.723999" y="0.890869" width="260" height="260" filterUnits="userSpaceOnUse" color-interpolation-filters="sRGB">
<feFlood flood-opacity="0" result="BackgroundImageFix"/>
<feColorMatrix in="SourceAlpha" type="matrix" values="0 0 0 0 0 0 0 0 0 0 0 0 0 0 0 0 0 0 127 0" result="hardAlpha"/>
<feOffset dy="4"/>
<feGaussianBlur stdDeviation="20"/>
<feComposite in2="hardAlpha" operator="out"/>
<feColorMatrix type="matrix" values="0 0 0 0 0.0367917 0 0 0 0 0.0348958 0 0 0 0 0.0484375 0 0 0 0.1 0"/>
<feBlend mode="normal" in2="BackgroundImageFix" result="effect1_dropShadow_22_681"/>
<feBlend mode="normal" in="SourceGraphic" in2="effect1_dropShadow_22_681" result="shape"/>
</filter>
</defs>
</svg>
