<svg width="261" height="261" viewBox="0 0 261 261" fill="none" xmlns="http://www.w3.org/2000/svg">
<g filter="url(#filter0_d_22_668)">
<rect x="40.724" y="36.2969" width="180" height="180" rx="32" fill="white"/>
<rect x="41.224" y="36.7969" width="179" height="179" rx="31.5" stroke="white"/>
</g>
<path d="M179.762 90.6921L133.645 174.586C132.693 176.318 130.246 176.328 129.28 174.604L82.249 90.6999C81.1959 88.8218 82.7748 86.5465 84.8671 86.9273L131.033 95.3218C131.328 95.3753 131.629 95.3748 131.924 95.3202L177.124 86.939C179.21 86.5524 180.796 88.8101 179.762 90.6921Z" fill="url(#paint0_linear_22_668)"/>
<path d="M153.024 75.9157L118.897 82.7189C118.624 82.7733 118.377 82.9183 118.194 83.1311C118.011 83.344 117.903 83.6126 117.887 83.8948L115.788 119.965C115.776 120.163 115.81 120.361 115.887 120.543C115.964 120.725 116.081 120.887 116.23 121.014C116.379 121.142 116.555 121.233 116.744 121.28C116.933 121.326 117.131 121.328 117.321 121.283L126.822 119.052C127.711 118.843 128.515 119.64 128.332 120.55L125.509 134.613C125.319 135.559 126.192 136.368 127.101 136.087L132.97 134.274C133.879 133.993 134.754 134.804 134.561 135.752L130.075 157.841C129.794 159.223 131.601 159.977 132.354 158.792L132.858 158.001L160.667 101.541C161.133 100.595 160.329 99.5174 159.309 99.7179L149.528 101.638C148.609 101.818 147.827 100.948 148.087 100.033L154.47 77.5204C154.73 76.6035 153.945 75.7324 153.025 75.9157H153.024Z" fill="url(#paint1_linear_22_668)"/>
<defs>
<filter id="filter0_d_22_668" x="0.723999" y="0.296875" width="260" height="260" filterUnits="userSpaceOnUse" color-interpolation-filters="sRGB">
<feFlood flood-opacity="0" result="BackgroundImageFix"/>
<feColorMatrix in="SourceAlpha" type="matrix" values="0 0 0 0 0 0 0 0 0 0 0 0 0 0 0 0 0 0 127 0" result="hardAlpha"/>
<feOffset dy="4"/>
<feGaussianBlur stdDeviation="20"/>
<feComposite in2="hardAlpha" operator="out"/>
<feColorMatrix type="matrix" values="0 0 0 0 0.0367917 0 0 0 0 0.0348958 0 0 0 0 0.0484375 0 0 0 0.1 0"/>
<feBlend mode="normal" in2="BackgroundImageFix" result="effect1_dropShadow_22_668"/>
<feBlend mode="normal" in="SourceGraphic" in2="effect1_dropShadow_22_668" result="shape"/>
</filter>
<linearGradient id="paint0_linear_22_668" x1="81.1007" y1="93.6959" x2="131.951" y2="161.579" gradientUnits="userSpaceOnUse">
<stop stop-color="#41D1FF"/>
<stop offset="1" stop-color="#BD34FE"/>
</linearGradient>
<linearGradient id="paint1_linear_22_668" x1="135.312" y1="77.7629" x2="145.894" y2="149.115" gradientUnits="userSpaceOnUse">
<stop stop-color="#FFEA83"/>
<stop offset="0.083" stop-color="#FFDD35"/>
<stop offset="1" stop-color="#FFA800"/>
</linearGradient>
</defs>
</svg>
